<?xml version="1.0"?>
<svg version="1.1" xmlns="http://www.w3.org/2000/svg" width="400px" height="150px" style=""><path fill="#0092fa" d="M31.94,68.77c0,1.12-0.49,1.47-1.47,1.47l-3.99,0l0,36.68l3.78,0c0.98,0,1.47,0.63,1.47,1.47l0,3.01c0,0.84-0.35,1.4-1.26,1.4l-16.66,0c-0.91,0-1.4-0.56-1.4-1.33l0-3.15c0-0.98,0.42-1.4,1.4-1.4l3.71,0l0-36.68l-4.06,0c-0.98,0-1.4-0.49-1.4-1.4l0-3.08c0-0.77,0.42-1.4,1.26-1.4l17.15,0c0.98,0,1.47,0.63,1.47,1.33l0,3.08z M86.155,110.91c0,1.54-0.63,1.89-1.68,1.89l-4.69,0c-1.05,0-1.96-0.49-2.66-1.47l-22.82-31.22l-0.14,0l0,30.87c0,1.33-0.63,1.82-1.82,1.82l-5.04,0c-1.33,0-1.89-0.35-1.89-1.75l0-44.8c0-1.47,0.63-1.89,1.89-1.89l4.55,0c1.12,0,1.68,0.35,2.38,1.33l23.03,31.64l0.14,0l0-31.15c0-1.33,0.63-1.82,1.82-1.82l5.25,0c1.47,0,1.68,0.77,1.68,1.89l0,44.66z M135.4,66.11l-0.49,4.06c-0.14,1.19-0.91,1.47-2.17,1.47l-12.67,0l0,39.55c0,1.33-0.28,1.61-1.47,1.61l-6.16,0c-1.26,0-1.47-0.28-1.47-1.54l0-39.62l-13.09,0c-1.19,0-1.61-0.49-1.61-1.68l0-4.13c0-1.05,0.49-1.47,1.54-1.47l35.42,0c1.82,0,2.31,0.56,2.17,1.75z M179.535,111.96c0,0.56-0.42,0.84-1.05,0.84l-6.37,0c-1.26,0-2.1-0.35-2.73-1.4l-10.08-16.45l-5.39,0l0,16.1c0,1.05-0.42,1.75-1.61,1.75l-5.74,0c-1.19,0-1.68-0.56-1.68-1.75l0-44.66c0-1.54,0.35-2.03,1.89-2.03l10.36,0c6.09,0,12.53,0.91,16.24,5.18c2.24,2.59,3.36,6.02,3.36,9.8c0,6.44-3.43,11.48-9.03,13.93l11.48,17.71c0.21,0.35,0.35,0.7,0.35,0.98z M167.565,79.48c0-6.09-4.06-8.26-10.15-8.26l-3.5,0l0,16.94l4.34,0c5.6,0,9.31-3.01,9.31-8.68z M229.83,111.68c0,0.7-0.35,1.12-1.26,1.12l-6.23,0c-1.47,0-1.96-0.56-2.38-1.68l-3.64-10.29l-17.71,0l-3.64,10.5c-0.28,0.91-0.77,1.47-1.89,1.47l-6.23,0c-0.7,0-0.98-0.35-0.98-0.91c0-0.21,0-0.49,0.14-0.77l17.08-45.36c0.35-0.84,0.84-1.4,1.89-1.4l5.6,0c1.05,0,1.68,0.49,1.96,1.26l17.15,45.15c0.14,0.35,0.14,0.63,0.14,0.91z M213.94,94.04l-4.97-14.77c-0.63-1.96-1.05-3.43-1.4-4.55l-0.14,0c-0.35,1.19-0.77,2.66-1.47,4.62l-4.97,14.7l12.95,0z M280.405,110.91c0,1.54-0.63,1.89-1.68,1.89l-4.69,0c-1.05,0-1.96-0.49-2.66-1.47l-22.82-31.22l-0.14,0l0,30.87c0,1.33-0.63,1.82-1.82,1.82l-5.04,0c-1.33,0-1.89-0.35-1.89-1.75l0-44.8c0-1.47,0.63-1.89,1.89-1.89l4.55,0c1.12,0,1.68,0.35,2.38,1.33l23.03,31.64l0.14,0l0-31.15c0-1.33,0.63-1.82,1.82-1.82l5.25,0c1.47,0,1.68,0.77,1.68,1.89l0,44.66z M324.26,111.12c0,1.12-0.49,1.68-1.68,1.68l-25.97,0c-1.4,0-1.89-0.35-1.89-1.89l0-44.8c0-1.12,0.49-1.75,1.61-1.75l26.39,0c1.12,0,1.47,0.42,1.47,1.19l0,0.42l-0.49,4.2c-0.14,1.26-0.91,1.47-2.38,1.47l-17.57,0l0,12.67l16.17,0c1.33,0,1.75,0.56,1.75,1.54l0,3.99c0,1.19-0.49,1.68-1.68,1.68l-16.24,0l0,14l18.76,0c1.19,0,1.75,0.49,1.75,1.61l0,3.99z M371.475,66.11l-0.49,4.06c-0.14,1.19-0.91,1.47-2.17,1.47l-12.67,0l0,39.55c0,1.33-0.28,1.61-1.47,1.61l-6.16,0c-1.26,0-1.47-0.28-1.47-1.54l0-39.62l-13.09,0c-1.19,0-1.61-0.49-1.61-1.68l0-4.13c0-1.05,0.49-1.47,1.54-1.47l35.42,0c1.82,0,2.31,0.56,2.17,1.75z M388.87,109.02c0,2.87-2.59,4.69-4.97,4.69c-2.45,0-4.97-1.68-4.97-4.62c0-3.01,2.38-4.76,4.97-4.76c2.52,0,4.97,1.75,4.97,4.69z"/><path fill="#" d=""/></svg>
